<svg id="Layer_1" data-name="Layer 1" xmlns="http://www.w3.org/2000/svg" xmlns:xlink="http://www.w3.org/1999/xlink" viewBox="0 0 1910.31995 856.81818"><defs><style>.cls-1,.cls-10,.cls-11,.cls-3,.cls-5,.cls-6,.cls-7,.cls-8,.cls-9{fill:none;}.cls-2{clip-path:url(#clip-path);}.cls-10,.cls-11,.cls-3,.cls-6,.cls-7,.cls-8,.cls-9{stroke:#f37900;}.cls-10,.cls-11,.cls-3,.cls-5,.cls-6,.cls-7,.cls-8,.cls-9{stroke-miterlimit:10;}.cls-3{stroke-width:0.27004px;}.cls-4{fill:#fff;}.cls-5{stroke:#00b0f0;stroke-width:0.54009px;}.cls-6{stroke-width:0.26998px;}.cls-7{stroke-width:0.29796px;}.cls-8{stroke-width:0.29674px;}.cls-9{stroke-width:0.29737px;}.cls-10{stroke-width:0.29796px;}.cls-11{stroke-width:0.29784px;}.cls-12{opacity:0.4;}.cls-13{opacity:0.5;}.cls-14{clip-path:url(#clip-path-2);}.cls-15{fill:#a8a1b7;}.cls-16{clip-path:url(#clip-path-3);}.cls-17{opacity:0.75;}.cls-18{clip-path:url(#clip-path-4);}.cls-19{clip-path:url(#clip-path-5);}</style><clipPath id="clip-path"><rect class="cls-1" y="50.58464" width="1910.31995" height="859.058"/></clipPath><clipPath id="clip-path-2"><rect id="SVGID" class="cls-1" x="1787.95106" y="-5.23355" width="122.36888" height="868.01208"/></clipPath><clipPath id="clip-path-3"><rect id="SVGID-2" data-name="SVGID" class="cls-1" y="-5.23355" width="122.36888" height="868.01207"/></clipPath><clipPath id="clip-path-4"><rect id="SVGID-3" data-name="SVGID" class="cls-1" x="1539.08602" y="337.35443" width="371.23396" height="423.09818"/></clipPath><clipPath id="clip-path-5"><rect id="SVGID-4" data-name="SVGID" class="cls-1" y="392.67203" width="371.23396" height="423.09818"/></clipPath></defs><g id="Layer_2" data-name="Layer 2"><g id="Layer_1-2" data-name="Layer 1-2"><g class="cls-2"><polyline class="cls-3" points="-9 718.003 395.06 685.697 653.01 844.866"/><polyline class="cls-3" points="-9 705.225 395.84 672.919 653.78 832.08"/><polyline class="cls-3" points="-9 692.439 396.61 660.133 654.55 819.302"/><polyline class="cls-3" points="-9 678.85 397.38 646.545 655.33 805.714"/><polygon class="cls-4" points="588.861 764.644 528.703 769.92 459.543 726.521 520.125 721.503 588.861 764.644"/><line class="cls-5" x1="-6.28" y1="765.10333" x2="1922.4" y2="605.35915"/><line class="cls-5" x1="-6.28" y1="774.68876" x2="1922.4" y2="614.94462"/><line class="cls-5" x1="-6.28" y1="783.84481" x2="1922.4" y2="624.10874"/><line class="cls-5" x1="-6.28" y1="794.24051" x2="1922.4" y2="634.50448"/><line class="cls-5" x1="-6.28" y1="804.63625" x2="1922.4" y2="644.90018"/><line class="cls-5" x1="-6.28" y1="814.22983" x2="1922.4" y2="654.48565"/><polygon class="cls-4" points="1386.664 648.518 1347.593 651.687 1294.002 707.582 1333.952 704.223 1386.664 648.518"/><polyline class="cls-3" points="653.01 844.866 1247.3 795.796 1426.76 606.145 1923.08 567.001"/><polyline class="cls-3" points="653.78 832.08 1246.74 783.124 1427.26 593.764 1923.08 554.215"/><polyline class="cls-3" points="654.55 819.302 1247.12 770.37 1427.87 581.213 1923.08 541.437"/><polyline class="cls-3" points="655.33 805.714 1246.52 756.895 1428.28 568.127 1923.08 527.841"/><polyline class="cls-3" points="986.83 785.089 976.37 792.381 987.81 797.899"/><polyline class="cls-3" points="1159.887 770.205 1170.337 762.913 1158.897 757.395"/><polyline class="cls-3" points="1630.095 583.863 1619.645 591.156 1631.085 596.673"/><polyline class="cls-3" points="1754.038 548.62 1743.578 555.913 1755.018 561.431"/><polyline class="cls-6" points="1473.213 572.305 1482.213 563.842 1469.883 559.768"/><polyline class="cls-3" points="852.604 822.115 842.144 829.407 853.594 834.925"/><polyline class="cls-7" points="406.712 659.1 419.634 660.331 414.944 648.641"/><polyline class="cls-8" points="1291.468 741.23 1295.673 731.669 1286.261 737.753"/><polyline class="cls-3" points="1395.009 610.587 1391.274 619.303 1400.782 613.814"/><polyline class="cls-9" points="640.622 803.814 627.709 802.597 632.385 814.23"/><polyline class="cls-10" points="445.311 711.038 458.27 711.655 453.032 700.213"/><polyline class="cls-11" points="559.972 780.462 547.056 779.253 551.761 790.924"/><polyline class="cls-3" points="165.794 697.266 176.254 689.973 164.814 684.455"/><polyline class="cls-3" points="320.132 660.372 309.682 667.665 321.122 673.183"/><polyline class="cls-5" points="96.324 791.494 106.774 784.201 95.334 778.683"/><polyline class="cls-5" points="235.974 738.339 226.054 746.117 237.874 751.084"/><polyline class="cls-5" points="837.741 688.432 827.601 696.008 839.271 701.202"/><polyline class="cls-5" points="950.91 722.015 961.01 714.407 949.31 709.254"/><polyline class="cls-5" points="1514.257 632.941 1503.807 640.225 1515.247 646.553"/><polyline class="cls-5" points="741.316 758.905 751.776 751.612 740.336 746.094"/><polyline class="cls-5" points="1609.185 686.775 1619.645 679.482 1608.195 673.964"/><polyline class="cls-5" points="1780.437 632.941 1790.887 625.648 1779.447 620.138"/><polyline class="cls-5" points="1401.174 660.409 1391.274 668.195 1403.104 673.146"/><polyline class="cls-5" points="468.73 758.698 458.27 765.991 469.71 771.508"/><polyline class="cls-5" points="337.47 791.494 347.92 784.201 336.48 778.683"/><polyline class="cls-5" points="587.261 727.977 577.161 735.585 588.861 740.739"/><polyline class="cls-5" points="1235.189 694.821 1225.089 702.429 1236.789 707.582"/><polyline class="cls-5" points="1083.499 690.861 1093.949 683.568 1082.509 678.05"/></g></g></g><g id="Layer_2-2" data-name="Layer 2" class="cls-12"><g id="Layer_1-2-2" data-name="Layer 1-2"><g class="cls-13"><g class="cls-14"><path class="cls-15" d="M1915.01766,846.03013v-1.85741l-30.93729-51.45781a3.69537,3.69537,0,0,0,.9255-1.41057l29.999,9.24863v-1.39779l-23.26519-6.79136-6.4466-1.985h0a4.24486,4.24486,0,0,0-.09574-1.56375l29.78839-12.7145v-.92547l-30.13307,12.86129a3.52971,3.52971,0,0,0-1.99781-1.82546l18.91215-83.21856h.05745a3.281,3.281,0,0,0,2.12546-.45954l11.03581,18.24831v-1.45529l-10.39754-17.19514a3.82961,3.82961,0,0,0,1.034-1.64034l9.36353,2.73823v-.78506l-9.121-2.67435a.59228.59228,0,0,1,0-.083,4.09131,4.09131,0,0,0-.47233-2.41909l9.57416-7.27638v-.951l-9.96351,7.57634a3.772,3.772,0,0,0-.91912-.85527l10.88263-27.90545V665.532l-6.38277,16.35905,6.38277-18.893V660.3173l-11.84,35.10524a2.94829,2.94829,0,0,0-.3-.12124,2.77449,2.77449,0,0,0-.56169.03833l-20.01637-161.48409a3.55529,3.55529,0,0,0,1.768-1.27655l31.00114,23.233v-1.05953l-30.465-22.87586a4.946,4.946,0,0,0,.32552-.9702l30.13944,4.67859v-.63828l-26.23319-4.07221,26.23319,1.91483V532.151l-30.082-2.15738a3.9509,3.9509,0,0,0-1.27655-2.91693l31.37131-51.47067v-1.39144l-31.94577,52.41531a3.44686,3.44686,0,0,0-1.1489-.4468,3.281,3.281,0,0,0-1.91483.351l-82.33773-150.71632a3.7273,3.7273,0,0,0,1.04039-1.56379l116.29408,37.19877v-.95742l-116.00047-37.07749v-.09576a4.123,4.123,0,0,0-.06383-1.22548l116.03878-38.77533V332.332l-116.28132,38.87109a3.77871,3.77871,0,0,0-1.54463-1.83824l51.509-140.938c.14043.0319.2617.12766.4085.15318a3.36373,3.36373,0,0,0,2.968-1.1106l62.966,56.36624v-1.0723L1852.575,226.85677a3.82967,3.82967,0,0,0,.2936-3.56158l62.149-36.64985v-1.03405l-62.50647,36.86689a3.56161,3.56161,0,0,0-2.41269-1.634,3.19147,3.19147,0,0,0-1.54462.166l-24.8609-69.068a3.76587,3.76587,0,0,0,2.02334-2.8914.6378.6378,0,0,0,0-.15957l89.30772-1.6659v-.9255l-89.35878,1.65313a3.89988,3.89988,0,0,0-1.22549-2.39353L1913.06454-2.64214a3.58048,3.58048,0,0,0,1.02762.39573,2.80853,2.80853,0,0,0,.9255,0V-11.878l-.3,1.94675a3.6254,3.6254,0,0,0-3.67647,3.27436,3.98284,3.98284,0,0,0,1.27655,3.47222L1823.71213,145.0424a3.47891,3.47891,0,0,0-1.04039-.39573,3.63819,3.63819,0,0,0-4.04633,3.178q-.0077.064-.01311.12823a3.82966,3.82966,0,0,0,3.04458,4.40411,3.29342,3.29342,0,0,0,1.54463-.15319l24.86088,69.07435a3.82969,3.82969,0,0,0-2.02333,2.8914,3.96369,3.96369,0,0,0,1.87653,3.95732L1796.413,369.07126a3.26946,3.26946,0,0,0-.41488-.15957,3.651,3.651,0,0,0-4.049,3.20385q-.006.05113-.01047.10242a3.868,3.868,0,0,0,3.04458,4.41048,3.26814,3.26814,0,0,0,1.91483-.351l82.33774,150.69081a3.90621,3.90621,0,0,0-1.36591,2.5531,4.02115,4.02115,0,0,0,1.60846,3.82967l-65.92764,145.074a3.138,3.138,0,0,0-.63828-.25533,3.65732,3.65732,0,0,0-4.06144,3.20261q-.00612.05178-.01077.1037a3.868,3.868,0,0,0,3.04459,4.40413,3.28734,3.28734,0,0,0,2.234-.51065l65.34679,101.486a3.90623,3.90623,0,0,0-1.23187,2.368,3.82967,3.82967,0,0,0,3.04459,4.41052,3.26118,3.26118,0,0,0,1.62761-.19791l30.14582,69.32326h.93189l-29.048-66.80848Zm-34.76695-312.3855a3.71625,3.71625,0,0,0,.67019.25532,2.77091,2.77091,0,0,0,.56169-.03829l20.0036,161.48413a3.72109,3.72109,0,0,0-2.51481,2.78288l-83.04623-15.7591a3.98924,3.98924,0,0,0-1.60207-3.59989Zm2.04249,252.29178a3.29342,3.29342,0,0,0-2.234.517l-65.34681-101.486a3.88064,3.88064,0,0,0,1.09146-1.91483l83.0207,15.73346a3.8296,3.8296,0,0,0,2.41906,3.95729l-18.89938,83.21856Z"/></g></g></g></g><g id="Layer_2-3" data-name="Layer 2" class="cls-12"><g id="Layer_1-2-3" data-name="Layer 1-2"><g class="cls-13"><g class="cls-16"><path class="cls-15" d="M-4.69772,11.51486v1.85741L26.23957,64.83008a3.69541,3.69541,0,0,0-.9255,1.41057L-4.68495,56.992v1.39779l23.2652,6.79135,6.4466,1.985h0a4.24479,4.24479,0,0,0,.09573,1.56374L-4.6658,81.44445v.92547l30.13306-12.8613a3.52978,3.52978,0,0,0,1.99781,1.82547L8.55292,154.55265H8.49548a3.281,3.281,0,0,0-2.12547.45954l-11.0358-18.24832v1.45529L5.73174,155.41431a3.82955,3.82955,0,0,0-1.034,1.64034l-9.36352-2.73824v.78507l9.121,2.67434a.59228.59228,0,0,1,0,.083,4.0914,4.0914,0,0,0,.47233,2.4191l-9.57416,7.27637v.951l9.96351-7.57635a3.77178,3.77178,0,0,0,.91912.85527L-4.64664,189.68968V192.013l6.38277-16.359-6.38277,18.893v2.68073l11.84-35.10524a2.94983,2.94983,0,0,0,.3.12124,2.77368,2.77368,0,0,0,.56168-.03834L28.07145,323.68944a3.55529,3.55529,0,0,0-1.768,1.27656L-4.69772,301.733v1.05952l30.465,22.87587a4.94614,4.94614,0,0,0-.32552.97019L-4.69772,321.96v.63828l26.23319,4.07221-26.23319-1.91483v.63827l30.082,2.15738a3.95092,3.95092,0,0,0,1.27655,2.91693L-4.71048,381.93892v1.39144l31.94577-52.4153a3.44737,3.44737,0,0,0,1.1489.4468,3.281,3.281,0,0,0,1.91483-.351l82.33773,150.71632a3.72739,3.72739,0,0,0-1.04039,1.56379L-4.69772,446.09215v.95742l116.00047,37.07749v.09576a4.123,4.123,0,0,0,.06383,1.22548L-4.67219,524.22363v.98932l116.28131-38.87109a3.77874,3.77874,0,0,0,1.54463,1.83825l-51.509,140.938c-.14042-.03191-.2617-.12767-.4085-.15318a3.36371,3.36371,0,0,0-2.968,1.11059l-62.966-56.36624v1.0723l62.44264,55.90668a3.82967,3.82967,0,0,0-.2936,3.56158l-62.149,36.64986v1.034L57.80875,635.0668a3.56158,3.56158,0,0,0,2.41269,1.634,3.19153,3.19153,0,0,0,1.54463-.166l24.86089,69.068a3.76584,3.76584,0,0,0-2.02334,2.89139.63875.63875,0,0,0,0,.15957l-89.30772,1.6659v.9255L84.65468,709.592a3.89991,3.89991,0,0,0,1.22549,2.39354L-2.74459,860.18712a3.58065,3.58065,0,0,0-1.02763-.39573,2.80853,2.80853,0,0,0-.9255,0v9.6316l.3-1.94674a3.62541,3.62541,0,0,0,3.67647-3.27437,3.98284,3.98284,0,0,0-1.27655-3.47222L86.60781,712.50258a3.47864,3.47864,0,0,0,1.04039.39573,3.63819,3.63819,0,0,0,4.04633-3.178q.00769-.064.01312-.12823a3.82967,3.82967,0,0,0-3.04458-4.40411,3.29354,3.29354,0,0,0-1.54463.15319L62.25755,636.26677a3.82967,3.82967,0,0,0,2.02333-2.8914,3.9637,3.9637,0,0,0-1.87653-3.95732l51.50257-140.94432a3.27155,3.27155,0,0,0,.41488.15957,3.651,3.651,0,0,0,4.049-3.20386q.006-.05112.01047-.10241a3.868,3.868,0,0,0-3.04458-4.41048,3.26822,3.26822,0,0,0-1.91483.351L31.08409,330.57679A3.90626,3.90626,0,0,0,32.45,328.02368a4.02113,4.02113,0,0,0-1.60846-3.82966L96.76918,179.12a3.1376,3.1376,0,0,0,.63828.25532,3.6573,3.6573,0,0,0,4.06144-3.2026q.00612-.05178.01077-.10371a3.86794,3.86794,0,0,0-3.04458-4.40412,3.28731,3.28731,0,0,0-2.234.51065L30.85432,70.6895a3.9062,3.9062,0,0,0,1.23187-2.368A3.82967,3.82967,0,0,0,29.04161,63.911a3.26115,3.26115,0,0,0-1.62761.1979L-2.73182-5.21436h-.93189l29.048,66.80849Zm34.767,312.3855a3.71675,3.71675,0,0,0-.67019-.25533,2.77092,2.77092,0,0,0-.56169.0383L8.83375,162.1992a3.72116,3.72116,0,0,0,2.51482-2.78288l83.04622,15.7591a3.98924,3.98924,0,0,0,1.60208,3.59989ZM28.02675,71.60858a3.29349,3.29349,0,0,0,2.234-.517l65.3468,101.486a3.88054,3.88054,0,0,0-1.09145,1.91483L11.49537,158.759a3.82961,3.82961,0,0,0-2.41907-3.95728L27.97568,71.5831Z"/></g></g></g></g><g id="Layer_2-4" data-name="Layer 2" class="cls-12"><g id="Layer_1-2-4" data-name="Layer 1-2"><g class="cls-17"><g class="cls-18"><path class="cls-15" d="M1773.93368,751.23273a4.30128,4.30128,0,0,0,3.50475,4.61991,3.465,3.465,0,0,0,2.66838-.75672,3.98269,3.98269,0,0,0,1.41384-2.80778,4.41064,4.41064,0,0,0-.32857-1.9316l-.07965-.19914.18917-.10951,127.57465-71.03079v-.5476l-127.98286,71.2598-.12944-.18918a3.9826,3.9826,0,0,0-2.73808-1.85192h-.57749l.12944-.32856,63.24468-166.27617h.14934a3.56449,3.56449,0,0,0,2.84759-2.34977l.14934-.39826.26882.32857,64.63866,77.90084v-.40822L1844.02854,577.967v-.10952a1.28451,1.28451,0,0,1,0-.18918.2285.2285,0,0,0,0-.10953,4.46057,4.46057,0,0,0-1.26448-3.435l-.09957-.08961v-.13939L1870.334,460.97628l.28875.16926a3.65428,3.65428,0,0,0,1.45367.51775,1.52347,1.52347,0,0,0,.468,0h.5277l.04978.19913,35.75435,149.01132v-2.24025L1873.62969,461.494l.19915-.07965a3.58435,3.58435,0,0,0,1.99133-1.90173l.09957-.219,32.95654,14.15836v-.55757l-32.857-14.06875.05973-.20909a1.20578,1.20578,0,0,1,.04977-.17922.99419.99419,0,0,0,.05974-.20909v-.25887h.25888l32.41888,2.60864v-.23895l-32.72753-2.62856v-.20909a4.21164,4.21164,0,0,0-3.43506-3.98266h-.48783L1866.66,374.891h.23895a3.435,3.435,0,0,0,2.08094-.99566l.15931-.16926.17921.14935,39.55781,33.50415v-.448l-39.52791-33.534.10951-.17922a3.98242,3.98242,0,0,0,.63724-1.842,4.31152,4.31152,0,0,0-.35842-1.99133l-.08964-.16926.17921-.10953,39.05-24.78211v-.63723L1869.418,368.70794l-.13941-.19914a3.903,3.903,0,0,0-2.68831-1.74241,3.50475,3.50475,0,0,0-2.65844.74675,3.98269,3.98269,0,0,0-1.4238,2.80778,4.42076,4.42076,0,0,0,.916,3.06665l.12944.16926-.13941.14935L1736.636,512.10372l-.18918-.14934a3.654,3.654,0,0,0-1.832-.88615,3.43511,3.43511,0,0,0-2.64847.74675,3.98267,3.98267,0,0,0-1.43377,2.80779,3.48546,3.48546,0,0,0,.07966.84632l.07965.448-.20909.0697-179.34921,53.517-.09957-.15931a4.04242,4.04242,0,0,0-3.09652-2.53895,3.50473,3.50473,0,0,0-2.67834.74675,3.923,3.923,0,0,0-1.384,2.78787,4.24154,4.24154,0,0,0,3.49479,4.6,3.48482,3.48482,0,0,0,2.71817-.79654l.17922-.14934.1593.17921,78.72729,85.49782-.13939.16928a3.913,3.913,0,0,0-.93593,2.20041,4.28137,4.28137,0,0,0,3.49479,4.60994,3.45493,3.45493,0,0,0,3.39522-1.72251l.12944-.19915.20908.12944L1774.312,749.87864l-.11947.31862A3.58416,3.58416,0,0,0,1773.93368,751.23273Zm-36.71019-238.9498L1863.99166,373.8854l.17921.13939a3.6839,3.6839,0,0,0,1.832.87619h.51774v.28874l5.5359,78.40867h-.239a3.684,3.684,0,0,0-3.20605,3.47488,4.44037,4.44037,0,0,0,.16928,1.47358l.04977.20909-.19915.07966-130.93,54.76162-.09958-.2091-.11947-.25886a2.19,2.19,0,0,0-.25886-.53767l-.12944-.16926ZM1633.67426,659.03408a3.6938,3.6938,0,0,0-1.52336-.56753,3.41509,3.41509,0,0,0-2.69826.78658l-.17922.15931-.16926-.17921-78.71733-85.49781.12944-.16926a3.84331,3.84331,0,0,0,.93592-2.21038,3.53473,3.53473,0,0,0-.07965-.84632l-.07966-.4381.219-.05973,179.33931-53.5469.08961.19913a4.27125,4.27125,0,0,0,.88614,1.34415l.14934.14934-98.093,141.00617Zm.697.63724-.14936-.14934.11949-.16928,97.97351-140.84687.19913.12944a3.66417,3.66417,0,0,0,1.51342.58744,3.10657,3.10657,0,0,0,1.24458-.10952h.0896l.47792-.2091a3.75367,3.75367,0,0,0,2.24025-3.226h0a4.15234,4.15234,0,0,0-.16926-1.47358v-.2091l.19913-.08961,130.92008-54.76161.09958.20909a4.271,4.271,0,0,0,.84632,1.18484l.09957.09957v.13939l-27.71936,112.87865-.28875-.16927a3.91317,3.91317,0,0,0-1.44373-.5277,3.73367,3.73367,0,0,0-1.26448.10953h-.08961l-.48786.25886a3.7935,3.7935,0,0,0-2.24025,3.23592,4.97743,4.97743,0,0,0,.13941,1.27445v.19913l-.18918.07965-201.12447,83.158-.08961-.229a4.38111,4.38111,0,0,0-.89612-1.374Zm139.91094,89.73936-138.99493-85.02985.0697-.19914a3.98257,3.98257,0,0,0,.31861-1.11514,5.35643,5.35643,0,0,0-.14935-1.26449v-.19914l.18918-.07964,201.17426-83.158.0896.229a3.98264,3.98264,0,0,0,3.09651,2.529h.57747l-.12944.33853L1777.26914,747.738h-.13939a3.51473,3.51473,0,0,0-2.4593,1.57313l-.12944.19915Z"/></g></g></g></g><g id="Layer_2-5" data-name="Layer 2" class="cls-12"><g id="Layer_1-2-5" data-name="Layer 1-2"><g class="cls-17"><g class="cls-19"><path class="cls-15" d="M136.3863,401.8919a4.30127,4.30127,0,0,0-3.50475-4.6199,3.465,3.465,0,0,0-2.66838.75672,3.98267,3.98267,0,0,0-1.41384,2.80778,4.4106,4.4106,0,0,0,.32857,1.93159l.07965.19915-.18917.10951L1.44373,474.10753v.54761l127.98286-71.2598.12944.18918a3.98263,3.98263,0,0,0,2.73808,1.85192h.57749l-.12944.32856L69.49748,572.04117h-.14934a3.56447,3.56447,0,0,0-2.84759,2.34977l-.14934.39826-.26882-.32857L1.44373,496.55978v.40823l64.84771,78.18963v.10952a1.28451,1.28451,0,0,1,0,.18918.2287.2287,0,0,0,0,.10952,4.46059,4.46059,0,0,0,1.26448,3.435l.09958.0896v.13939L39.98594,692.14835l-.28875-.16926a3.65411,3.65411,0,0,0-1.45367-.51774,1.52347,1.52347,0,0,0-.468,0h-.5277l-.04977-.19913L1.44373,542.2509v2.24024L36.69029,691.63061l-.19915.07965a3.58438,3.58438,0,0,0-1.99133,1.90173l-.09957.21905L1.4437,679.67268v.55757l32.857,14.06874-.05973.20909a1.20578,1.20578,0,0,1-.04977.17922.99437.99437,0,0,0-.05974.20909v.25888h-.25888L1.45369,692.54662v.239l32.72753,2.62855v.20909a4.21166,4.21166,0,0,0,3.43506,3.98267h.48783L43.66,778.23361h-.239a3.435,3.435,0,0,0-2.08094.99567l-.15931.16926-.17921-.14935L1.44373,745.745v.448l39.52791,33.534-.10951.17922a3.98246,3.98246,0,0,0-.63724,1.842,4.3115,4.3115,0,0,0,.35842,1.99133l.08964.16927-.17921.10952-39.05,24.78212v.63722L40.902,784.4167l.13941.19913a3.90294,3.90294,0,0,0,2.68831,1.74241,3.50471,3.50471,0,0,0,2.65844-.74675,3.98269,3.98269,0,0,0,1.4238-2.80777,4.42079,4.42079,0,0,0-.916-3.06666l-.12944-.16926.13941-.14935L173.684,641.02091l.18918.14935a3.65411,3.65411,0,0,0,1.832.88614,3.435,3.435,0,0,0,2.64847-.74675,3.9826,3.9826,0,0,0,1.43376-2.80778,3.485,3.485,0,0,0-.07965-.84633l-.07966-.448.2091-.06971,179.34921-53.517.09957.15931a4.04236,4.04236,0,0,0,3.09652,2.539,3.50469,3.50469,0,0,0,2.67834-.74675,3.92293,3.92293,0,0,0,1.384-2.78786,4.24153,4.24153,0,0,0-3.49478-4.6,3.4848,3.4848,0,0,0-2.71817.79653l-.17922.14935-.15931-.17922L281.166,493.45331l.13939-.16927a3.913,3.913,0,0,0,.93593-2.20042,4.28136,4.28136,0,0,0-3.49479-4.60993,3.45491,3.45491,0,0,0-3.39522,1.72251l-.12944.19914-.20909-.12944L136.00794,403.246l.11947-.31862A3.584,3.584,0,0,0,136.3863,401.8919Zm36.71018,238.9498L46.32832,779.23923l-.17921-.13939a3.68407,3.68407,0,0,0-1.832-.87619h-.51774v-.28874l-5.53589-78.40867h.23895a3.684,3.684,0,0,0,3.206-3.47487,4.44043,4.44043,0,0,0-.16928-1.47359l-.04977-.20909.19915-.07965,130.93-54.76162.09958.20909.11947.25887a2.19034,2.19034,0,0,0,.25885.53767l.12945.16926ZM276.64572,494.09055a3.69381,3.69381,0,0,0,1.52336.56754,3.41506,3.41506,0,0,0,2.69826-.78659l.17922-.15931.16926.17922,78.71733,85.4978-.12944.16927a3.84319,3.84319,0,0,0-.93592,2.21037,3.53482,3.53482,0,0,0,.07965.84633l.07965.43809-.219.05974-179.33931,53.5469-.08961-.19913a4.27129,4.27129,0,0,0-.88614-1.34416l-.14934-.14934,98.093-141.00617Zm-.697-.63724.14935.14935-.11948.16927L178.00511,634.61881l-.19913-.12945a3.664,3.664,0,0,0-1.51342-.58743,3.10621,3.10621,0,0,0-1.24458.10952h-.08961l-.47791.2091a3.75365,3.75365,0,0,0-2.24025,3.226h0a4.15237,4.15237,0,0,0,.16926,1.47358v.2091l-.19913.0896L41.29026,693.9804l-.09958-.20908a4.271,4.271,0,0,0-.84632-1.18485l-.09957-.09956v-.1394L67.96415,579.46887l.28875.16926a3.913,3.913,0,0,0,1.44373.5277,3.73366,3.73366,0,0,0,1.26448-.10952h.08961l.48787-.25887a3.7935,3.7935,0,0,0,2.24024-3.23591,4.97776,4.97776,0,0,0-.1394-1.27445V575.088l.18917-.07966,201.12447-83.158.08961.229a4.38121,4.38121,0,0,0,.89611,1.374ZM136.03781,403.714,275.03273,488.7438l-.06969.19915a3.98248,3.98248,0,0,0-.31861,1.11514,5.35635,5.35635,0,0,0,.14935,1.26448v.19915l-.18918.07964-201.17426,83.158-.0896-.229a3.98265,3.98265,0,0,0-3.09651-2.529h-.57747l.12944-.33852,63.25464-166.27617h.13939a3.51471,3.51471,0,0,0,2.4593-1.57314l.12944-.19914Z"/></g></g></g></g></svg>