<svg id="Layer_1" data-name="Layer 1" xmlns="http://www.w3.org/2000/svg" viewBox="0 0 624.34 194.29"><defs><style>.cls-1{fill:#fff;}.cls-2{fill:#29ade4;}</style></defs><title>SVG -- WHITE text Thru Logo</title><path class="cls-1" d="M89.27,43.58V191.4H52.77V43.58H0v-36H142v36Z"/><path class="cls-1" d="M249.68,191.4V116.83q0-18.37-6-25.2T226.45,84.8q-11.23,0-17.37,6.7T203,116.05V191.4h-36.5V18.12L203,0V62.75a38.58,38.58,0,0,1,13-8.53,48.59,48.59,0,0,1,19.3-3.55q26.25,0,38.6,16.94t12.34,46.08V191.4Z"/><path class="cls-1" d="M399.34,95.83a41.7,41.7,0,0,0-9.72-6.62,25.37,25.37,0,0,0-11.29-2.57A32.77,32.77,0,0,0,368.75,88a15.65,15.65,0,0,0-7.35,4.74,24,24,0,0,0-4.73,9.21,53.14,53.14,0,0,0-1.7,14.74V191.4h-36.5V53.56H355v9.1a42.68,42.68,0,0,1,11.68-8.47,36.5,36.5,0,0,1,16.67-3.52,35.76,35.76,0,0,1,25.47,9.72Z"/><path class="cls-1" d="M511.44,191.4v-9.19a38.33,38.33,0,0,1-13,8.53,48.59,48.59,0,0,1-19.3,3.55q-26.52,0-38.73-16.94t-12.2-46.07V53.56h36.49v74.56a63.27,63.27,0,0,0,1.57,15.36,26.25,26.25,0,0,0,4.44,9.85,15.71,15.71,0,0,0,7.31,5.25,29.49,29.49,0,0,0,9.92,1.58q11.22,0,17.36-6.7t6.13-24.55V53.56h36.5V191.4Z"/><path class="cls-2" d="M622.38,179.06a25.82,25.82,0,0,1-13.27,13.26,23.65,23.65,0,0,1-18.9,0A25.75,25.75,0,0,1,577,179.06a23.65,23.65,0,0,1,0-18.9,25.75,25.75,0,0,1,13.26-13.26,23.65,23.65,0,0,1,18.9,0,25.82,25.82,0,0,1,13.27,13.26,23.76,23.76,0,0,1,0,18.9Z"/></svg>