<svg xmlns="http://www.w3.org/2000/svg" viewBox="0 0 336.26 104.64"><defs><style>.cls-1{fill:#fff;}.cls-2{fill:#00b0f0;}</style></defs><g id="Layer_2" data-name="Layer 2"><g id="logos"><g id="Gray_Logo_w_reg" data-name="Gray Logo w/reg"><polygon class="cls-1" points="0 4.1 0 23.47 28.42 23.47 28.42 103.08 48.08 103.08 48.08 23.47 76.5 23.47 76.5 4.1 0 4.1"/><path class="cls-1" d="M134.47,103.08V62.92q0-9.89-3.23-13.57T122,45.67q-6,0-9.35,3.61T109.3,62.5v40.58H89.65V9.76L109.3,0V33.79a20.91,20.91,0,0,1,7-4.59,26.3,26.3,0,0,1,10.4-1.91q14.13,0,20.78,9.12t6.65,24.82v41.85Z"/><path class="cls-1" d="M215.07,51.61a22.3,22.3,0,0,0-5.23-3.56,13.53,13.53,0,0,0-6.08-1.39,17.83,17.83,0,0,0-5.16.71,8.44,8.44,0,0,0-4,2.55,13,13,0,0,0-2.54,5,28.29,28.29,0,0,0-.92,7.93v40.26H171.52V28.84h19.66v4.91a22.59,22.59,0,0,1,6.29-4.56,19.61,19.61,0,0,1,9-1.9,19.35,19.35,0,0,1,13.72,5.23Z"/><path class="cls-1" d="M275.45,103.08v-5a20.67,20.67,0,0,1-7,4.6,26.25,26.25,0,0,1-10.39,1.91q-14.28,0-20.86-9.12T230.63,70.7V28.85h19.65V69a33.94,33.94,0,0,0,.85,8.28,14.25,14.25,0,0,0,2.39,5.3,8.53,8.53,0,0,0,3.93,2.83,16.1,16.1,0,0,0,5.35.85q6,0,9.35-3.61t3.3-13.22V28.85h19.66v74.23Z"/><path class="cls-2" d="M335.2,96.44a13.9,13.9,0,0,1-7.15,7.14,12.75,12.75,0,0,1-10.18,0,13.92,13.92,0,0,1-7.14-7.14,12.77,12.77,0,0,1,0-10.19,13.92,13.92,0,0,1,7.14-7.14,12.75,12.75,0,0,1,10.18,0,13.9,13.9,0,0,1,7.15,7.14,12.77,12.77,0,0,1,0,10.19"/><path class="cls-1" d="M306.13,42.26a7,7,0,0,1-5-12,7,7,0,0,1,12,5,7,7,0,0,1-7,7m0-12.92A5.9,5.9,0,0,0,302,39.43a5.91,5.91,0,0,0,8.36-8.36,5.65,5.65,0,0,0-4.17-1.73m3.39,10.3h-1.61l-1-2.14c-.5-1.08-1-1.62-1.59-1.62h-.61v3.76h-1.37V30.72h2.51a3.86,3.86,0,0,1,2.41.65,2.14,2.14,0,0,1,.84,1.78,2.24,2.24,0,0,1-.59,1.56,3.05,3.05,0,0,1-1.66.87v0c.49.11,1,.65,1.47,1.64Zm-4.78-7.77v2.87h1.1c1.23,0,1.84-.48,1.84-1.44a1.21,1.21,0,0,0-.49-1.13,3.15,3.15,0,0,0-1.57-.3Z"/></g></g></g></svg>